# xmcd
#
# Track frame offsets:
#	150
#	17975
#	36960
#	56046
#	76013
#	93818
#	111606
#	130114
#	148029
#	172582
#	194990
#	211199
#	231455
#	247311
#
# Disc length: 3564 seconds
#
# Revision: 1
# Processed by: cddbd v1.5.2PL0 Copyright (c) Steve Scherf et al.
# Submitted via: audiograbber 1.83.01
#
DISCID=cb0dea0e
DTITLE=Denisa - Haideti sus romanilor
DYEAR=2009
DGENRE=Ethnic
TTITLE0=Haideti sus romanilor
TTITLE1=Sterge mama lacrima
TTITLE2=Ah ce mama am avut
TTITLE3=Stii cind pleci, nu stii cind vii
TTITLE4=Imi dai Doamne o zi buna
TTITLE5=Fara bani eu as cersi
TTITLE6=Omul bun nu are noroc
TTITLE7=Vorba dulce mult aduce
TTITLE8=Doar pe tine
TTITLE9=Nu ma duc la spinzurat
TTITLE10=Bate-ma Doamne
TTITLE11=Omule cit poti sa dai
TTITLE12=Dupa badea umblu intruna
TTITLE13=Unde-s anii ce-au trecut
EXTD=
EXTT0=
EXTT1=
EXTT2=
EXTT3=
EXTT4=
EXTT5=
EXTT6=
EXTT7=
EXTT8=
EXTT9=
EXTT10=
EXTT11=
EXTT12=
EXTT13=
PLAYORDER=
